#N canvas 962 39 952 1003 10;
#X declare -lib simpl;
#X obj 145 12 osc~ 440;
#N canvas 0 50 450 300 mqpeaks~ 0;
#X obj 15 17 inlet~;
#X obj 15 92 mqpeaks~;
#X obj 189 96 switch~ 4096;
#X obj 189 17 loadbang;
#X obj 189 46 tgl 25 0 empty empty empty 17 7 0 10 #e4e4e4 #000000 #373737 0 1;
#X obj 15 121 outlet;
#X msg 69 17 hopsize 4096;
#X connect 0 0 1 0;
#X connect 1 0 5 0;
#X connect 3 0 4 0;
#X connect 4 0 2 0;
#X connect 6 0 1 0;
#X restore 19 203 pd mqpeaks~;
#X obj 229 12 declare -lib simpl;
#X obj 96 258 getFreqs;
#X obj 19 258 getAmps;
#X obj 96 316 unpack f f f f;
#X obj 148 103 *~ 0.3;
#X obj 148 150 dac~;
#X obj 96 379 nbx 34 44 -1e+37 1e+37 0 0 empty empty empty 0 -8 0 10 #e4e4e4 #373737 #373737 0 256;
#X obj 19 12 osc~ 440;
#X text 229 102 This uses the algorithm of MQ \, based in;
#X connect 1 0 4 0;
#X connect 1 0 3 0 32.................L....zD....C....MA...LB....;
#X connect 3 0 5 0;
#X connect 5 0 8 0;
#X connect 6 0 7 0;
#X connect 6 0 7 1;
#X connect 9 0 1 0;
#X connect 9 0 6 0 32.................X....DH....F....AB...bD....;
