#N canvas 12 44 941 473 12;
#X declare -lib simpl;
#X obj 3 4 declare -lib simpl;
#X obj 9 189 s-peaks~;
#X obj 9 46 osc~ 440;
#X obj 9 214 print;
#X msg 76 46 sms;
#X msg 108 46 loris;
#X msg 155 46 sndobj;
#X msg 207 46 mq;
#X obj 76 85 symbol;
#X msg 76 121 set peak \$1;
#X msg 243 46 sms;
#X msg 275 46 loris;
#X msg 322 46 sndobj;
#X msg 374 46 mq;
#X obj 243 85 symbol;
#X msg 243 121 set partial \$1;
#X connect 1 0 3 0;
#X connect 2 0 1 0;
#X connect 4 0 8 0;
#X connect 5 0 8 0;
#X connect 6 0 8 0;
#X connect 7 0 8 0;
#X connect 8 0 9 0;
#X connect 9 0 1 0;
#X connect 10 0 14 0;
#X connect 11 0 14 0;
#X connect 12 0 14 0;
#X connect 13 0 14 0;
#X connect 14 0 15 0;
#X connect 15 0 1 0;
