#N canvas 12 44 941 992 10;
#X declare -lib simpl;
#X declare -path else;
#X declare -path else;
#X obj 9 30 declare -lib simpl;
#X text 306 6 The utilization of the [peaks~] facilitates the application of diverse methodologies in Partial Tracking. These entities primarily serve the purpose of examining said algorithms from an auditory standpoint.;
#X obj 9 7 declare -path else;
#N canvas 0 0 450 250 (subpatch) 0;
#X array sound 275516 float 2;
#X coords 0 1 275516 -1 226 59 1;
#X restore 402 441 graph;
#X obj 354 291 soundfiler;
#X obj 30 557 dac~;
#X msg 354 252 read -resize flute.aif sound;
#X obj 354 209 loadbang;
#X obj 30 133 tabplay~ sound;
#X obj 30 66 bng 53 250 50 0 empty empty empty 17 7 0 10 #e4e4e4 #000000 #373737;
#X obj 354 76 tgl 64 0 empty empty empty 17 7 0 10 #e4e4e4 #000000 #373737 0 1;
#X msg 354 151 \; pd dsp \$1;
#N canvas 0 50 11 300 MANIPULATIONS 0;
#X obj 25 19 inlet;
#X obj 25 436 outlet;
#X obj 25 384 s-trans;
#N canvas 0 50 450 300 remove-all-harmonic-serie 0;
#X obj 33 464 outlet;
#X obj 226 47 bng 92 250 50 0 empty empty empty 17 7 0 10 #e4e4e4 #000000 #373737;
#X obj 33 33 catch~ original;
#X obj 33 62 sigmund~ -hop 8192 pitch;
#X obj 33 91 mtof;
#X obj 378 33 declare -path else;
#X text 508 32 OBS.: You must has else installed!!!!;
#X obj 33 120 nbx 7 19 -1e+37 1e+37 0 0 empty empty empty 0 -8 0 10 #e4e4e4 #373737 #373737 0 256;
#X obj 160 189 loop;
#X obj 160 218 + 1;
#X obj 160 247 nbx 4 18 -1e+37 1e+37 0 0 empty empty empty 0 -8 0 10 #e4e4e4 #373737 #373737 0 256;
#X obj 34 295 * 440;
#X msg 34 340 amps \$1 15 0;
#X text 324 119 <= BANG to remove!, f 40;
#X msg 160 156 5;
#X connect 1 0 14 0;
#X connect 2 0 3 0;
#X connect 3 0 4 0;
#X connect 4 0 7 0;
#X connect 7 0 11 1;
#X connect 8 0 9 0;
#X connect 9 0 10 0;
#X connect 10 0 11 0;
#X connect 11 0 12 0;
#X connect 12 0 0 0;
#X connect 14 0 8 0;
#X restore 205 318 pd remove-all-harmonic-serie;
#X msg 104 150 expand \$1;
#X text 328 149 trans <freq to change> <cents variations> <cents to transpose>, f 67;
#X msg 188 149 trans 440 40 200;
#X msg 205 238 amps 440 40 0.4;
#X text 328 237 amps <freq to change> <cents variations> <new amp factor>, f 67;
#X text 328 265 For <new amp factor> \, 0 silence the partial \, 1 keep as original \, 2 is twice the original amps \, 0.5 is half the original amplitude \, you can use anything number you want.;
#X obj 104 72 nbx 10 46 -1e+37 1e+37 0 0 empty empty empty 0 -8 0 10 #e4e4e4 #373737 #373737 0 256;
#X connect 0 0 2 0;
#X connect 2 0 1 0;
#X connect 3 0 2 0;
#X connect 4 0 2 0;
#X connect 6 0 2 0;
#X connect 7 0 2 0;
#X connect 10 0 4 0;
#X restore 30 311 pd MANIPULATIONS;
#N canvas 0 50 450 300 RESYNTH 0;
#X obj 48 240 s-synth~;
#X msg 158 122 set synth \$1;
#X msg 158 46 sms;
#X msg 205 46 loris;
#X msg 251 46 sndobj;
#X msg 311 46 mq;
#X obj 158 96 symbol;
#X obj 48 308 outlet~;
#X obj 48 66 inlet;
#N canvas 0 50 450 300 SMS-SYNTH-CONFIG 0;
#X msg 42 56 1;
#X msg 16 21 0;
#X text 42 20 IFFT;
#X text 71 55 Sinusoidal Table Lookup;
#X obj 16 130 outlet;
#X msg 16 101 cfg type \$1;
#X connect 0 0 5 0;
#X connect 1 0 5 0;
#X connect 5 0 4 0;
#X restore 300 137 pd SMS-SYNTH-CONFIG;
#X connect 0 0 7 0;
#X connect 1 0 0 0 32.................I....Tq+++eB....05+++qA....;
#X connect 2 0 6 0;
#X connect 3 0 6 0;
#X connect 4 0 6 0;
#X connect 5 0 6 0;
#X connect 6 0 1 0;
#X connect 8 0 0 0;
#X connect 9 0 0 0 32.................b....Tv+++OG....E7+++OE....;
#X restore 30 354 pd RESYNTH;
#X obj 30 268 s-peaks~ -hop 256 -fr 512 -pd loris -pt sms;
#X obj 402 360 unpack f f f f;
#X obj 500 360 samplerate~;
#X obj 500 388 nbx 9 19 -1e+37 1e+37 0 0 empty empty empty 0 -8 0 10 #e4e4e4 #373737 #373737 0 256;
#X obj 402 320 t a b;
#X obj 63 181 throw~ original;
#X obj 30 413 *~, f 16;
#X obj 129 355 tgl 25 0 empty empty empty 17 7 0 10 #e4e4e4 #000000 #373737 0 1;
#X obj 93 496 pd-ckn/ckn-record;
#X obj 176 360 nbx 4 18 -1e+37 1e+37 0 0 empty empty empty 0 -8 0 10 #e4e4e4 #373737 #373737 0 256;
#N canvas 0 50 450 300 CHOOSE 0;
#X msg 100 211 set \$1 \$2;
#X obj 100 177 pack s s;
#X msg 63 75 peak;
#X msg 100 106 partial;
#X msg 199 83 sms;
#X msg 246 83 loris;
#X msg 292 83 sndobj;
#X msg 352 83 mq;
#X obj 199 133 symbol;
#X obj 100 371 outlet;
#X msg 294 284 ptcfg harmonic \$1;
#X msg 465 161 0;
#X msg 479 189 1;
#X msg 500 216 2;
#X msg 514 244 3;
#X text 540 160 Harmonic Partial Tracking without Phase;
#X text 540 188 Inharmonic Partial Tracking without Phase;
#X text 540 215 Harmonic Partial Tracking with Phase;
#X text 540 243 Inharmonic Partial Tracking with Phase;
#X connect 0 0 9 0;
#X connect 1 0 0 0;
#X connect 2 0 1 0;
#X connect 3 0 1 0;
#X connect 4 0 8 0;
#X connect 5 0 8 0;
#X connect 6 0 8 0;
#X connect 7 0 8 0;
#X connect 8 0 1 1;
#X connect 10 0 9 0;
#X connect 11 0 10 0;
#X connect 12 0 10 0;
#X connect 13 0 10 0;
#X connect 14 0 10 0;
#X restore 54 228 pd CHOOSE PARTIALTRACKING METHOD;
#X obj 645 191 s-sdif;
#X msg 645 120 export sound;
#X connect 4 1 18 0;
#X connect 6 0 4 0;
#X connect 7 0 6 0;
#X connect 8 0 14 0;
#X connect 8 0 19 0;
#X connect 9 0 8 0;
#X connect 10 0 11 0;
#X connect 12 0 13 0;
#X connect 13 0 20 0;
#X connect 14 0 12 0;
#X connect 16 0 17 0;
#X connect 18 0 15 0;
#X connect 18 1 16 0;
#X connect 20 0 5 0;
#X connect 20 0 5 1;
#X connect 20 0 22 0;
#X connect 21 0 20 1;
#X connect 23 0 20 1;
#X connect 24 0 14 0;
#X connect 26 0 25 0;
