#N canvas 1282 23 632 1016 10;
#X obj 8 124 partialtrack/partialtrack~;
#X obj 8 204 dac~;
#X obj 8 103 *~;
#X obj 23 73 tgl 18 0 empty empty empty 0 -9 0 10 #fcfcfc #000000 #000000 0 1;
#X obj 8 17 osc~ 440;
#X obj 8 39 *~ 0.4;
#X connect 0 0 1 0;
#X connect 0 0 1 1;
#X connect 2 0 0 0;
#X connect 3 0 2 1;
#X connect 4 0 5 0;
#X connect 5 0 2 0;
