#N canvas 772 23 377 1016 10;
#X declare -path else;
#X declare -path partialtrack;
#X text 306 6 The utilization of the [peaks~] facilitates the application of diverse methodologies in Partial Tracking. These entities primarily serve the purpose of examining said algorithms from an auditory standpoint.;
#X obj 9 7 declare -path else;
#N canvas 0 0 450 250 (subpatch) 0;
#X array sound 288000 float 2;
#X coords 0 1 288000 -1 226 59 1;
#X restore 546 284 graph;
#X obj 416 284 soundfiler;
#X obj 9 427 dac~;
#X obj 416 211 loadbang;
#X obj 9 134 tabplay~ sound;
#X obj 9 67 bng 53 250 50 0 empty playagain empty 17 7 0 10 #e4e4e4 #000000 #373737;
#X obj 416 90 tgl 64 0 empty empty empty 17 7 0 10 #e4e4e4 #000000 #373737 0 1;
#X msg 416 165 \; pd dsp \$1;
#N canvas 1538 23 376 1016 MANIPULATIONS 1;
#X obj 25 19 inlet;
#X obj 25 543 outlet;
#X text 513 208 For <new amp factor> \, 0 silence the partial \, 1 keep as original \, 2 is twice the original amps \, 0.5 is half the original amplitude \, you can use anything number you want.;
#X obj 327 306 nbx 7 21 -1e+37 1e+37 0 0 empty empty empty 0 -8 0 10 #e4e4e4 #373737 #373737 0 256;
#X obj 100 542 s playagain;
#X obj 100 435 bng 80 250 50 0 empty empty empty 17 7 0 10 #e4e4e4 #000000 #373737;
#X text 410 307 <= Set the sound fundamental;
#X text 551 125 comment;
#X obj 25 86 partialtrack/trans;
#X connect 0 0 8 0;
#X connect 5 0 4 0;
#X connect 8 0 1 0;
#X restore 9 297 pd MANIPULATIONS;
#N canvas 1155 23 377 1016 RESYNTH 1;
#X msg 158 122 set synth \$1;
#X msg 158 46 sms;
#X msg 205 46 loris;
#X msg 251 46 sndobj;
#X msg 311 46 mq;
#X obj 158 96 symbol;
#X obj 48 423 outlet~;
#X obj 48 66 inlet;
#N canvas 6 292 471 226 SMS-SYNTH-CONFIG 0;
#X msg 42 56 1;
#X msg 16 21 0;
#X text 42 20 IFFT;
#X text 71 55 Sinusoidal Table Lookup;
#X obj 16 130 outlet;
#X msg 16 101 cfg type \$1;
#X obj 263 128 s playagain;
#X obj 263 21 bng 80 250 50 0 empty empty empty 17 7 0 10 #e4e4e4 #000000 #373737;
#X connect 0 0 5 0;
#X connect 1 0 5 0;
#X connect 5 0 4 0;
#X connect 7 0 6 0;
#X restore 300 137 pd SMS-SYNTH-CONFIG;
#X obj 194 214 tgl 61 0 empty empty empty 17 7 0 10 #e4e4e4 #000000 #373737 0 1;
#X msg 194 284 cfg residual \$1;
#X obj 349 391 s playagain;
#X obj 349 284 bng 80 250 50 0 empty empty empty 17 7 0 10 #e4e4e4 #000000 #373737;
#X obj 48 355 partialtrack/synth~;
#X connect 0 0 13 0;
#X connect 1 0 5 0;
#X connect 2 0 5 0;
#X connect 3 0 5 0;
#X connect 4 0 5 0;
#X connect 5 0 0 0;
#X connect 7 0 13 0;
#X connect 8 0 13 0;
#X connect 9 0 10 0;
#X connect 10 0 13 0;
#X connect 12 0 11 0;
#X connect 13 0 6 0;
#X restore 9 331 pd RESYNTH;
#X f 26;
#X obj 9 379 *~ 0.4, f 16;
#X text 65 67 2) Play;
#X text 498 210 3) If necessary \, load a new audio;
#N canvas 6 28 951 488 OFFLINE 0;
#X obj 331 224 switch~;
#X obj 331 142 tgl 60 0 empty empty empty 17 7 0 10 #e4e4e4 #000000 #373737 0 1;
#X obj 18 142 pt-peaks~ -offline;
#X text 146 141 need the [-offline] tab;
#X msg 18 56 tab sound;
#X msg 112 56 set peak loris;
#X obj 112 12 loadbang;
#X msg 216 56 set partial sms;
#X obj 18 401 pt-trans;
#N canvas 0 0 450 250 (subpatch) 0;
#X array soundout 287744 float 4;
#X coords 0 1 287743 -1 408 140 1;
#X restore 513 495 graph;
#X obj 663 297 tabplay~ soundout;
#X obj 663 350 dac~;
#X obj 663 220 bng 64 250 50 0 empty empty empty 17 7 0 10 #e4e4e4 #000000 #373737;
#X obj 18 594 pt-synth~ -offline soundout;
#X obj 45 428 loadbang;
#X obj 798 350 dac~;
#X obj 798 220 bng 64 250 50 0 empty empty empty 17 7 0 10 #e4e4e4 #000000 #373737;
#X obj 798 297 tabplay~ sound;
#X msg 173 540 set speed 1;
#N canvas 0 50 450 300 print-info 0;
#X obj 51 18 inlet;
#X obj 51 47 route frames;
#X msg 51 76 There is \$1 frames.;
#X obj 51 258 print Infos;
#X connect 0 0 1 0;
#X connect 1 0 2 0;
#X connect 2 0 3 0;
#X restore 115 182 pd print-info;
#X msg 45 457 set synth sndobj;
#X msg 261 542 freeze \$1;
#X obj 261 506 tgl 25 0 empty empty empty 17 7 0 10 #e4e4e4 #000000 #373737 0 1;
#X text 395 141 Turn On the Audio;
#X msg 87 489 set freezedframe 30;
#X msg 87 360 reset;
#X obj 64 297 list, f 16;
#X msg 64 331 trans \$1 40 \$2;
#X obj 64 243 nbx 4 18 -1e+37 1e+37 0 0 empty empty empty 0 -8 0 10 #e4e4e4 #373737 #373737 0 256;
#X text 123 241 Freq to transpose;
#X obj 136 270 nbx 4 18 -1e+37 1e+37 0 0 empty empty empty 0 -8 0 10 #e4e4e4 #373737 #373737 0 256;
#X text 189 269 Transposition value in Cents;
#X obj 18 678 dac~;
#X connect 1 0 0 0;
#X connect 2 0 8 0;
#X connect 2 1 19 0;
#X connect 4 0 2 0;
#X connect 5 0 2 0;
#X connect 6 0 7 0;
#X connect 6 0 5 0;
#X connect 7 0 2 0;
#X connect 8 0 13 0;
#X connect 10 0 11 0;
#X connect 10 0 11 1;
#X connect 12 0 10 0;
#X connect 13 0 32 0;
#X connect 13 0 32 1;
#X connect 14 0 20 0;
#X connect 16 0 17 0;
#X connect 17 0 15 0;
#X connect 17 0 15 1;
#X connect 18 0 13 0;
#X connect 20 0 13 0;
#X connect 21 0 13 0;
#X connect 22 0 21 0;
#X connect 24 0 13 0;
#X connect 25 0 8 0;
#X connect 26 0 27 0;
#X connect 27 0 8 0;
#X connect 28 0 26 0;
#X connect 30 0 26 1;
#X restore 448 410 pd OFFLINE MODE;
#X text 419 409 2);
#N canvas 733 172 450 300 WARNING 0;
#X obj 442 339 samplerate~;
#X obj 442 367 nbx 9 19 -1e+37 1e+37 0 0 empty empty empty 0 -8 0 10 #e4e4e4 #373737 #373737 0 256;
#X obj 402 310 t a b;
#X obj 402 339 t f;
#X obj 402 400 ==;
#X obj 402 429 sel 0;
#X obj 402 502 print;
#X msg 402 458 Samplerate are differente \, you can get some errors related with the frequency., f 81;
#X obj 354 270 inlet;
#X connect 0 0 1 0;
#X connect 1 0 4 1;
#X connect 2 0 3 0;
#X connect 2 1 0 0;
#X connect 3 0 4 0;
#X connect 4 0 5 0;
#X connect 5 0 7 0;
#X connect 7 0 6 0;
#X connect 8 0 2 0;
#X restore 474 324 pd WARNING;
#X msg 416 243 read -resize ./flute-A4.wav sound;
#N canvas 0 50 450 300 sdif 0;
#X obj 102 353 pt-sdif;
#X obj 102 183 pt-peaks~ -offline;
#X text 230 182 need the [-offline] tab;
#X msg 102 97 tab sound;
#X msg 196 97 set peak loris;
#X obj 196 53 loadbang;
#X msg 300 97 set partial sms;
#N canvas 0 50 450 300 print-info 0;
#X obj 51 18 inlet;
#X obj 51 47 route frames;
#X msg 51 76 There is \$1 frames.;
#X obj 51 258 print Infos;
#X connect 0 0 1 0;
#X connect 1 0 2 0;
#X connect 2 0 3 0;
#X restore 199 223 pd print-info;
#X msg 180 285 read flute.sdif;
#X connect 1 0 0 0;
#X connect 1 1 7 0;
#X connect 3 0 1 0;
#X connect 4 0 1 0;
#X connect 5 0 6 0;
#X connect 5 0 4 0;
#X connect 6 0 1 0;
#X connect 8 0 0 0;
#X restore 135 134 pd sdif;
#X text 547 410 Not ready yet!;
#X text 121 297 <= CHECK HERE!;
#X obj 9 30 declare -path partialtrack;
#X obj 9 256 partialtrack/peaks~ -hop 512 -fr 1024 -pd loris -pt sms;
#X connect 3 1 17 0;
#X connect 5 0 18 0;
#X connect 6 0 23 0;
#X connect 7 0 6 0;
#X connect 8 0 9 0;
#X connect 10 0 11 0;
#X connect 11 0 12 0;
#X connect 12 0 4 0;
#X connect 12 0 4 1;
#X connect 18 0 3 0;
#X connect 23 0 10 0;
