#N canvas 963 23 951 1016 10;
#X obj 77 284 array define sound1;
#X obj 10 284 soundfiler;
#X msg 10 220 read -resize Audios/Fl-ord-A4-mf-N-N.wav sound1;
#X obj 13 13 vradio 18 1 0 4 s-pd r-pd empty 0 -9 0 10 #fcfcfc #000000 #000000 0;
#X text 33 13 loris;
#X text 34 32 sms;
#X text 35 49 mq;
#X obj 90 13 vradio 18 1 0 4 s-pt r-pt empty 0 -9 0 10 #fcfcfc #000000 #000000 0;
#X text 110 13 loris;
#X text 111 32 sms;
#X text 112 49 mq;
#X obj 168 13 vradio 18 1 0 4 s-synth r-synth empty 0 -9 0 10 #fcfcfc #000000 #000000 0;
#X text 188 13 loris;
#X text 189 32 sms;
#X text 190 49 mq;
#X obj 13 161 tgl 25 1 s-loop r-loop empty 0 -9 0 10 #fcfcfc #000000 #000000 1 1;
#X obj 13 133 bng 25 250 50 0 s-start r-start empty 0 -9 0 10 #fcfcfc #000000 #000000;
#X text 43 137 Play;
#X text 43 164 Loop;
#X text 191 67 sndobj;
#X text 113 67 sndobj;
#X text 36 67 sndobj;
#X obj 82 96 cnv 18 150 90 empty empty empty 20 12 0 10 #e0e0e0 #404040 0;
#X obj 86 124 nbx 5 16 -1e+37 1e+37 0 0 s-freq1 r-freq1 empty 0 -9 0 10 #fcfcfc #000000 #000000 0 256;
#X obj 86 144 nbx 5 16 -1e+37 1e+37 0 1 s-range1 r-range1 empty 0 -9 0 10 #fcfcfc #000000 #000000 50 256;
#X text 142 123 Freq (Hz);
#X text 104 99 REMOVE FREQUENCY;
#X text 143 143 Range (cents);
#X obj 13 105 bng 25 250 50 0 s-reset r-reset empty 0 -9 0 10 #fcfcfc #000000 #000000;
#X text 43 109 Reset;
#X obj 10 201 loadbang;
#X obj 237 95 cnv 18 150 90 empty empty empty 20 12 0 10 #e0e0e0 #404040 0;
#X obj 241 123 nbx 5 16 -1e+37 1e+37 0 0 s-freq2 r-freq2 empty 0 -9 0 10 #fcfcfc #000000 #000000 0 256;
#X obj 241 143 nbx 5 16 -1e+37 1e+37 0 1 s-range2 r-range2 empty 0 -9 0 10 #fcfcfc #000000 #000000 50 256;
#X text 297 122 Freq (Hz);
#X text 298 142 Range (cents);
#X text 256 98 TRANSPOSE FREQUENCY;
#X obj 241 164 nbx 5 16 -1e+37 1e+37 0 1 s-cents2 r-cents2 empty 0 -9 0 10 #fcfcfc #000000 #000000 207 256;
#X text 298 163 Tran (cents);
#X obj 431 12 tgl 25 1 s-switch r-switch empty 0 -9 0 10 #fcfcfc #000000 #000000 1 1;
#X text 384 15 ON/OFF;
#N canvas 963 550 951 489 (subpatch) 0;
#X obj 4 197 partialtrack~;
#X obj 4 40 tabplay~ sound1;
#X obj 91 69 spigot;
#X obj 124 40 tgl 18 0 empty s-loop empty 0 -9 0 10 #fcfcfc #000000 #000000 0 1;
#X obj 4 3 bng 18 250 50 0 empty s-start empty 0 -9 0 10 #fcfcfc #000000 #000000;
#X obj 4 224 dac~;
#N canvas 963 550 951 489 (subpatch) 0;
#X obj 6 7 r s-pd;
#X obj 6 29 nbx 5 16 -1e+37 1e+37 0 0 empty empty empty 0 -9 0 10 #fcfcfc #000000 #000000 0 256;
#X obj 6 50 sel 0 1 2 3, f 50;
#X msg 6 72 loris;
#X msg 80 72 sms;
#X msg 155 71 mq;
#X msg 6 173 set peak \$1;
#X obj 6 148 symbol;
#X obj 6 270 outlet;
#X obj 318 30 nbx 5 16 -1e+37 1e+37 0 0 empty empty empty 0 -9 0 10 #fcfcfc #000000 #000000 0 256;
#X obj 318 51 sel 0 1 2 3, f 50;
#X msg 318 73 loris;
#X msg 392 73 sms;
#X msg 467 72 mq;
#X obj 318 149 symbol;
#X obj 484 174 nbx 5 16 -1e+37 1e+37 0 0 empty empty empty 0 -9 0 10 #fcfcfc #000000 #000000 0 256;
#X obj 484 195 sel 0 1 2 3, f 50;
#X msg 484 217 loris;
#X msg 558 217 sms;
#X msg 633 216 mq;
#X obj 484 293 symbol;
#X msg 318 174 set partialtrack \$1;
#X obj 318 8 r s-pt;
#X obj 484 152 r s-synth;
#X msg 484 318 set synth \$1;
#X msg 707 216 sndobj;
#X msg 229 71 sndobj;
#X msg 541 72 sndobj;
#X connect 0 0 1 0;
#X connect 1 0 2 0;
#X connect 2 0 3 0;
#X connect 2 1 4 0;
#X connect 2 2 5 0;
#X connect 2 3 26 0;
#X connect 3 0 7 0;
#X connect 4 0 7 0;
#X connect 5 0 7 0;
#X connect 6 0 8 0;
#X connect 7 0 6 0;
#X connect 9 0 10 0;
#X connect 10 0 11 0;
#X connect 10 1 12 0;
#X connect 10 2 13 0;
#X connect 10 3 27 0;
#X connect 11 0 14 0;
#X connect 12 0 14 0;
#X connect 13 0 14 0;
#X connect 14 0 21 0;
#X connect 15 0 16 0;
#X connect 16 0 17 0;
#X connect 16 1 18 0;
#X connect 16 2 19 0;
#X connect 16 3 25 0;
#X connect 17 0 20 0;
#X connect 18 0 20 0;
#X connect 19 0 20 0;
#X connect 20 0 24 0;
#X connect 21 0 8 0;
#X connect 22 0 9 0;
#X connect 23 0 15 0;
#X connect 24 0 8 0;
#X connect 25 0 20 0;
#X connect 26 0 7 0;
#X connect 27 0 14 0;
#X restore 21 69 pd;
#X msg 167 162 man reset;
#X obj 167 140 r s-reset;
#N canvas 963 550 951 489 manipulations 0;
#X obj 27 21 r s-freq1;
#X obj 27 43 nbx 5 16 -1e+37 1e+37 0 0 empty empty empty 0 -9 0 10 #fcfcfc #000000 #000000 0 256;
#X obj 90 43 nbx 5 16 -1e+37 1e+37 0 0 empty empty empty 0 -9 0 10 #fcfcfc #000000 #000000 0 256;
#X obj 90 21 r s-range1;
#X obj 27 71 pack f f, f 11;
#X msg 27 93 man silence \$1 \$2;
#X obj 27 217 outlet;
#X obj 167 42 nbx 5 16 -1e+37 1e+37 0 0 empty empty empty 0 -9 0 10 #fcfcfc #000000 #000000 0 256;
#X obj 230 42 nbx 5 16 -1e+37 1e+37 0 0 empty empty empty 0 -9 0 10 #fcfcfc #000000 #000000 0 256;
#X obj 167 20 r s-freq2;
#X obj 230 20 r s-range2;
#X obj 299 42 nbx 5 16 -1e+37 1e+37 0 0 empty empty empty 0 -9 0 10 #fcfcfc #000000 #000000 0 256;
#X obj 299 20 r s-cents2;
#X obj 167 98 pack f f f, f 21;
#X obj 167 120 t a a;
#X obj 194 143 expr if($f1 != 0 && $f2 != 0 && $f3 != 0 \, 1 \, 0);
#X obj 167 164 spigot;
#X msg 167 186 man transpose \$1 \$2 \$3;
#X connect 0 0 1 0;
#X connect 1 0 4 0;
#X connect 2 0 4 1;
#X connect 3 0 2 0;
#X connect 4 0 5 0;
#X connect 5 0 6 0;
#X connect 7 0 13 0;
#X connect 8 0 13 1;
#X connect 9 0 7 0;
#X connect 10 0 8 0;
#X connect 11 0 13 2;
#X connect 12 0 11 0;
#X connect 13 0 14 0;
#X connect 14 0 16 0;
#X connect 14 1 15 0;
#X connect 15 0 16 1;
#X connect 16 0 17 0;
#X connect 17 0 6 0;
#X restore 27 132 pd manipulations;
#X obj 189 104 switch~;
#X obj 189 9 r s-switch;
#X obj 296 45 loadbang;
#X obj 296 91 s r-switch;
#X msg 296 68 0;
#X connect 0 0 5 0;
#X connect 0 0 5 1;
#X connect 1 0 0 0;
#X connect 1 1 2 0;
#X connect 2 0 1 0;
#X connect 3 0 2 1;
#X connect 4 0 1 0;
#X connect 6 0 0 0;
#X connect 7 0 0 0;
#X connect 8 0 7 0;
#X connect 9 0 0 0;
#X connect 11 0 10 0;
#X connect 12 0 14 0;
#X connect 14 0 13 0;
#X connect 14 0 10 0;
#X restore 8 341 pd;
#X msg 26 247 read -resize ./LibFiles/flute-A4.wav sound1;
#X connect 2 0 1 0;
#X connect 30 0 2 0;
#X connect 42 0 1 0;
#X coords 0 -1 1 1 450 180 1 10 10;
