#N canvas 12 44 941 992 10;
#X declare -path else;
#X declare -lib ../../partialtrack;
#X text 306 6 The utilization of the [peaks~] facilitates the application of diverse methodologies in Partial Tracking. These entities primarily serve the purpose of examining said algorithms from an auditory standpoint.;
#X obj 9 7 declare -path else;
#N canvas 0 0 450 250 (subpatch) 0;
#X array sound 275516 float 2;
#X coords 0 1 275516 -1 226 59 1;
#X restore 402 441 graph;
#X obj 354 291 soundfiler;
#X obj 354 209 loadbang;
#X obj 30 199 tabplay~ sound;
#X obj 30 132 bng 53 250 50 0 empty empty empty 17 7 0 10 #e4e4e4 #000000 #373737;
#X obj 354 76 tgl 64 0 empty empty empty 17 7 0 10 #e4e4e4 #000000 #373737 0 1;
#X msg 354 151 \; pd dsp \$1;
#X obj 402 360 unpack f f f f;
#X obj 500 360 samplerate~;
#X obj 500 388 nbx 9 19 -1e+37 1e+37 0 0 empty empty empty 0 -8 0 10 #e4e4e4 #373737 #373737 0 256;
#X obj 402 320 t a b;
#X obj 30 423 vu~;
#X obj 35 497 vu 20 120 empty empty -1 -8 0 10 #e4e4e4 #373737 1 0;
#X obj 191 547 dac~;
#X obj 9 30 declare -lib ../../partialtrack;
#X obj 30 341 s-ss~;
#X msg 354 252 read -resize ../../flute.aif sound;
#X obj 188 382 gain~ 1 0 20 0 0.347826;
#A saved;
#X obj 91 423 print~;
#X obj 91 341 bng 25 250 50 0 empty empty empty 17 7 0 10 #e4e4e4 #000000 #373737;
#X obj 30 252 s-peaks~ -pd loris -pt sms;
#X connect 3 1 12 0;
#X connect 4 0 18 0;
#X connect 5 0 22 0;
#X connect 6 0 5 0;
#X connect 7 0 8 0;
#X connect 10 0 11 0;
#X connect 12 0 9 0;
#X connect 12 1 10 0;
#X connect 13 0 14 0;
#X connect 17 0 13 0;
#X connect 17 0 19 0;
#X connect 17 0 20 0;
#X connect 18 0 3 0;
#X connect 19 0 15 0;
#X connect 19 0 15 1;
#X connect 21 0 20 0;
#X connect 22 0 17 0;
